<?xml version="1.0"?>
<svg xmlns="http://www.w3.org/2000/svg" xmlns:xlink="http://www.w3.org/1999/xlink" xmlns:svgjs="http://svgjs.com/svgjs" version="1.1" width="512" height="512" x="0" y="0" viewBox="0 0 512 512" style="enable-background:new 0 0 512 512" xml:space="preserve" class=""><g><g xmlns="http://www.w3.org/2000/svg"><circle cx="221" cy="145" r="15" fill="#466179" data-original="#000000" style="" class=""/><circle cx="221" cy="215" r="15" fill="#466179" data-original="#000000" style="" class=""/><circle cx="291" cy="145" r="15" fill="#466179" data-original="#000000" style="" class=""/><circle cx="291" cy="215" r="15" fill="#466179" data-original="#000000" style="" class=""/><path d="m489.715 169.903c-9.842-8.948-22.192-14.57-35.239-16.301-23.143-89.687-104.765-153.602-198.476-153.602s-175.333 63.915-198.476 153.603c-13.046 1.731-25.397 7.353-35.239 16.301-13.527 12.298-21.285 29.831-21.285 48.104 0 26.521 16.234 50.073 40 60.003v98.989c0 39.673 30.97 72.231 70 74.815v15.185c0 8.271-6.729 15-15 15-8.284 0-15 6.716-15 15s6.716 15 15 15c24.813 0 45-20.187 45-45v-15h230v15c0 24.813 20.187 45 45 45 8.284 0 15-6.716 15-15s-6.716-15-15-15c-8.271 0-15-6.729-15-15v-15.185c39.03-2.584 70-35.142 70-74.815v-98.989c23.766-9.93 40-33.482 40-60.003 0-18.273-7.758-35.806-21.285-48.105zm-233.715-139.903c78.508 0 147.077 52.535 168.275 126.838-25.197 9.296-43.275 34.554-43.275 63.318v81.844h-250v-81.844c0-28.765-18.078-54.023-43.275-63.319 21.198-74.303 89.767-126.837 168.275-126.837zm125 302v30h-250v-30zm72.015-79.7c-6.991 1.419-12.015 7.566-12.015 14.7v110c0 24.813-20.187 45-45 45h-280c-24.813 0-45-20.187-45-45v-110c0-7.134-5.024-13.281-12.015-14.7-16.215-3.293-27.985-17.715-27.985-34.292 0-9.839 4.179-19.282 11.466-25.907 6.521-5.928 14.765-9.093 23.519-9.093 1.159 0 2.329.056 3.503.167 17.67 1.685 31.512 17.929 31.512 36.981v156.844c0 8.284 6.716 15 15 15h280c8.284 0 15-6.716 15-15v-156.844c0-19.052 13.842-35.296 31.513-36.981 10.045-.954 19.638 2.213 27.021 8.926 7.287 6.625 11.466 16.068 11.466 25.907 0 16.577-11.77 30.999-27.985 34.292z" fill="#466179" data-original="#000000" style="" class=""/></g></g></svg>
