<?xml version="1.0"?>
<svg xmlns="http://www.w3.org/2000/svg" xmlns:xlink="http://www.w3.org/1999/xlink" xmlns:svgjs="http://svgjs.com/svgjs" version="1.1" width="512" height="512" x="0" y="0" viewBox="0 0 512 512" style="enable-background:new 0 0 512 512" xml:space="preserve" class=""><g>
<g xmlns="http://www.w3.org/2000/svg">
	<g>
		<g>
			<path d="M392.533,0H119.467C95.914,0.028,76.828,19.114,76.8,42.667V435.2c0.028,20.265,14.283,37.724,34.133,41.804v26.462     c0,4.713,3.82,8.533,8.533,8.533H153.6c4.713,0,8.533-3.82,8.533-8.533v-25.6h187.733v25.6c0,4.713,3.82,8.533,8.533,8.533     h34.133c4.713,0,8.533-3.82,8.533-8.533v-26.462c19.85-4.08,34.106-21.539,34.133-41.804V42.667     C435.172,19.114,416.086,0.028,392.533,0z M145.067,494.933H128v-17.067h17.067V494.933z M384,494.933h-17.067v-17.067H384     V494.933z M418.133,435.2c-0.015,14.132-11.468,25.585-25.6,25.6H119.467c-14.132-0.015-25.585-11.468-25.6-25.6V42.667     c0.015-14.132,11.468-25.585,25.6-25.6h273.067c14.132,0.015,25.585,11.468,25.6,25.6V435.2z" fill="#466179" data-original="#000000" style="" class=""/>
			<path d="M392.533,34.133H119.467c-4.713,0-8.533,3.82-8.533,8.533V435.2c0,4.713,3.82,8.533,8.533,8.533h273.067     c4.713,0,8.533-3.82,8.533-8.533V42.667C401.067,37.954,397.246,34.133,392.533,34.133z M128,85.333h17.067V102.4H128V85.333z      M128,119.467h17.067V153.6H128V119.467z M247.467,426.667H128V290.133h119.467V426.667z M384,426.667H264.533V290.133H384     V426.667z M281.6,238.933v34.133h-17.067v-34.133H281.6z M264.533,221.867V204.8H281.6v17.067H264.533z M315.733,238.933v34.133     h-17.067v-34.133H315.733z M298.667,221.867V204.8h17.067v17.067H298.667z M349.867,238.933v34.133H332.8v-34.133H349.867z      M332.8,221.867V204.8h17.067v17.067H332.8z M384,273.067h-17.067v-34.133H384V273.067z M384,221.867h-17.067V204.8H384V221.867z      M384,187.733H256c-4.713,0-8.533,3.82-8.533,8.533v76.8H128v-102.4h256V187.733z M179.2,119.467V153.6h-17.067v-34.133H179.2z      M162.133,102.4V85.333H179.2V102.4H162.133z M213.333,119.467V153.6h-17.067v-34.133H213.333z M196.267,102.4V85.333h17.067     V102.4H196.267z M247.467,119.467V153.6H230.4v-34.133H247.467z M230.4,102.4V85.333h17.067V102.4H230.4z M384,153.6H264.533     V76.8c0-4.713-3.82-8.533-8.533-8.533H128V51.2h256V153.6z" fill="#466179" data-original="#000000" style="" class=""/>
			<path d="M204.8,384c14.138,0,25.6-11.461,25.6-25.6c-0.015-14.132-11.468-25.585-25.6-25.6c-14.138,0-25.6,11.462-25.6,25.6     S190.662,384,204.8,384z M204.8,349.867c4.713,0,8.533,3.82,8.533,8.533c-0.006,4.71-3.823,8.527-8.533,8.533     c-4.713,0-8.533-3.82-8.533-8.533S200.087,349.867,204.8,349.867z" fill="#466179" data-original="#000000" style="" class=""/>
			<path d="M307.2,384c14.138,0,25.6-11.461,25.6-25.6c-0.015-14.132-11.468-25.585-25.6-25.6c-14.138,0-25.6,11.462-25.6,25.6     S293.062,384,307.2,384z M307.2,349.867c4.713,0,8.533,3.82,8.533,8.533c-0.006,4.71-3.823,8.527-8.533,8.533     c-4.713,0-8.533-3.82-8.533-8.533S302.487,349.867,307.2,349.867z" fill="#466179" data-original="#000000" style="" class=""/>
		</g>
	</g>
</g>
<g xmlns="http://www.w3.org/2000/svg">
</g>
<g xmlns="http://www.w3.org/2000/svg">
</g>
<g xmlns="http://www.w3.org/2000/svg">
</g>
<g xmlns="http://www.w3.org/2000/svg">
</g>
<g xmlns="http://www.w3.org/2000/svg">
</g>
<g xmlns="http://www.w3.org/2000/svg">
</g>
<g xmlns="http://www.w3.org/2000/svg">
</g>
<g xmlns="http://www.w3.org/2000/svg">
</g>
<g xmlns="http://www.w3.org/2000/svg">
</g>
<g xmlns="http://www.w3.org/2000/svg">
</g>
<g xmlns="http://www.w3.org/2000/svg">
</g>
<g xmlns="http://www.w3.org/2000/svg">
</g>
<g xmlns="http://www.w3.org/2000/svg">
</g>
<g xmlns="http://www.w3.org/2000/svg">
</g>
<g xmlns="http://www.w3.org/2000/svg">
</g>
</g></svg>
